<svg width="30" height="31" viewBox="0 0 30 31" fill="none" xmlns="http://www.w3.org/2000/svg">
<circle cx="15" cy="15.3926" r="15" fill="white"/>
<path d="M16.1993 16.5919C15.222 17.6004 15.1509 18.8576 15.0665 21.612C17.6343 21.612 19.4068 21.6031 20.322 20.7146C21.2105 19.7994 21.2194 17.9424 21.2194 15.4591C18.465 15.5479 17.2078 15.6145 16.1993 16.5919ZM8.78027 15.4591C8.78027 17.9424 8.78916 19.7994 9.67767 20.7146C10.5928 21.6031 12.3654 21.612 14.9332 21.612C14.8443 18.8576 14.7777 17.6004 13.8004 16.5919C12.7919 15.6145 11.5347 15.5435 8.78027 15.4591ZM14.9332 9.17285C12.3699 9.17285 10.5928 9.18174 9.67767 10.0702C8.78916 10.9854 8.78027 12.8424 8.78027 15.3258C11.5347 15.2369 12.7919 15.1703 13.8004 14.1929C14.7777 13.1845 14.8488 11.9272 14.9332 9.17285ZM16.1993 14.1929C15.222 13.1845 15.1509 11.9272 15.0665 9.17285C17.6343 9.17285 19.4068 9.18174 20.322 10.0702C21.2105 10.9854 21.2194 12.8424 21.2194 15.3258C18.465 15.2369 17.2078 15.1703 16.1993 14.1929Z" fill="#1F1F1F"/>
</svg>
