<svg width="30" height="31" viewBox="0 0 30 31" fill="none" xmlns="http://www.w3.org/2000/svg">
<circle cx="15" cy="15.3926" r="15" fill="white"/>
<path fill-rule="evenodd" clip-rule="evenodd" d="M9.25967 14.6699C12.6064 13.2037 14.8381 12.2371 15.9547 11.7701C19.1429 10.4366 19.8053 10.205 20.2371 10.1973C20.3321 10.1957 20.5444 10.2193 20.682 10.3316C20.7981 10.4263 20.8301 10.5543 20.8454 10.6442C20.8607 10.734 20.8797 10.9387 20.8646 11.0986C20.6918 12.924 19.9442 17.3537 19.5639 19.3982C19.403 20.2633 19.0861 20.5533 18.7794 20.5817C18.1127 20.6434 17.6064 20.1387 16.9607 19.7131C15.9503 19.0471 15.3795 18.6325 14.3987 17.9825C13.2653 17.2315 14 16.8187 14.646 16.144C14.815 15.9675 17.7524 13.2808 17.8093 13.0371C17.8164 13.0066 17.823 12.893 17.7559 12.833C17.6887 12.773 17.5897 12.7935 17.5182 12.8098C17.4168 12.833 15.8027 13.9058 12.6758 16.0283C12.2176 16.3447 11.8026 16.4988 11.4308 16.4907C11.0209 16.4818 10.2324 16.2577 9.64621 16.0661C8.92726 15.8311 8.35585 15.7068 8.40561 15.3077C8.43152 15.0998 8.71621 14.8872 9.25967 14.6699Z" fill="#1F1F1F"/>
</svg>
