<svg width="30" height="31" viewBox="0 0 30 31" fill="none" xmlns="http://www.w3.org/2000/svg">
<circle cx="15" cy="15.3926" r="15" fill="white"/>
<path fill-rule="evenodd" clip-rule="evenodd" d="M21.2374 12.2605C21.3345 11.9759 21.2374 11.7688 20.8077 11.7688H19.3796C19.0192 11.7688 18.8528 11.95 18.7557 12.1441C18.7557 12.1441 18.0209 13.8005 16.995 14.8746C16.6622 15.1852 16.5097 15.2887 16.3295 15.2887C16.2324 15.2887 16.1077 15.1852 16.1077 14.9005V12.2476C16.1077 11.9111 15.9968 11.7559 15.6917 11.7559H13.4457C13.2239 11.7559 13.0853 11.9111 13.0853 12.0664C13.0853 12.39 13.5982 12.4676 13.6537 13.3735V15.3405C13.6537 15.7675 13.5705 15.8451 13.3903 15.8451C12.905 15.8451 11.7266 14.1758 11.0195 12.2735C10.8808 11.8982 10.7422 11.7559 10.3817 11.7559H8.93984C8.52391 11.7559 8.45459 11.937 8.45459 12.1311C8.45459 12.4805 8.93984 14.2405 10.7145 16.5698C11.8929 18.1616 13.5705 19.0156 15.0817 19.0156C15.9968 19.0156 16.1077 18.8215 16.1077 18.498V17.2945C16.1077 16.9063 16.1909 16.8416 16.482 16.8416C16.69 16.8416 17.0643 16.9451 17.91 17.7086C18.8805 18.6145 19.0469 19.0286 19.5876 19.0286H21.0156C21.4315 19.0286 21.6256 18.8345 21.5147 18.4592C21.39 18.0839 20.9186 17.5404 20.3085 16.8934C19.9758 16.531 19.4767 16.1298 19.3242 15.9357C19.1162 15.6769 19.1717 15.5734 19.3242 15.3405C19.3103 15.3405 21.0572 13.037 21.2374 12.2605Z" fill="#1F1F1F"/>
</svg>
