<svg width="30" height="31" viewBox="0 0 30 31" fill="none" xmlns="http://www.w3.org/2000/svg">
<circle cx="15" cy="15.3926" r="15" fill="white"/>
<path d="M14.9999 10.5293C12.9972 10.5293 10.398 11.0245 10.398 11.0245L10.3914 11.0318C9.47932 11.1758 8.78052 11.9492 8.78052 12.8897V15.0619V15.0628V17.8944V17.8953C8.78141 18.3445 8.94455 18.7787 9.24065 19.1199C9.53676 19.4611 9.94642 19.6869 10.3961 19.7569L10.398 19.7597C10.398 19.7597 12.9972 20.2557 14.9999 20.2557C17.0025 20.2557 19.6018 19.7597 19.6018 19.7597L19.6027 19.7588C20.0529 19.6889 20.463 19.4629 20.7593 19.1213C21.0557 18.7797 21.2188 18.345 21.2192 17.8953V17.8944V15.0628V15.0619V12.8897C21.2186 12.4404 21.0555 12.006 20.7594 11.6646C20.4633 11.3232 20.0535 11.0972 19.6037 11.0272L19.6018 11.0245C19.6018 11.0245 17.0025 10.5293 14.9999 10.5293ZM13.5831 13.2542L17.4104 15.4265L13.5831 17.5988V13.2542Z" fill="#1F1F1F"/>
</svg>
