<svg width="74" height="49" viewBox="0 0 74 49" fill="none" xmlns="http://www.w3.org/2000/svg">
<path d="M36.632 0C34.1052 0 31.9608 1.61765 31.2004 3.86253C30.9994 4.456 30.9266 5.07984 30.8286 5.69608L28.7045 24.8562C28.6558 25.295 28.0624 25.3959 27.8712 24.9978L20.682 10.5342C20.4231 9.99519 20.1801 9.44193 19.8854 8.92189C18.9053 7.19233 17.0336 6.02332 14.8857 6.02332C11.7228 6.02332 9.15886 8.55817 9.15886 11.6851C9.15886 11.8959 9.17052 12.104 9.19321 12.3088C9.21649 12.5189 9.25737 12.7258 9.29563 12.9336L13.5184 33.5878C13.5884 33.9615 13.1827 34.2416 12.8577 34.0439L6.04503 29.8993C5.43351 29.5105 4.70589 29.285 3.92485 29.285C1.75724 29.285 0 31.0222 0 33.1652C0 33.9134 0.214137 34.6121 0.585175 35.2046C0.997562 35.8633 1.63544 36.3785 2.17813 36.9281L12.3659 47.2464L12.3731 47.2379C13.2916 48.2045 14.5964 48.8083 16.0439 48.8083C18.8005 48.8083 21.0399 46.6184 21.0796 43.9031L21.1082 37.2045C21.1103 36.7161 21.7887 36.5952 21.9596 37.0528L22.9068 39.5892C23.7916 41.8288 24.527 44.6698 25.9215 46.6607C26.8304 47.9584 28.3469 48.8083 30.0643 48.8083C30.9636 48.8083 31.8078 48.5752 32.5385 48.1669C34.3865 47.1342 34.7814 44.7788 35.007 42.6751C36.2569 31.0182 35.6596 36.1131 36.2218 30.9764C36.2785 30.4583 37.0282 30.441 37.0882 30.9587C37.2292 32.1743 37.4622 34.5579 38.4425 42.8728C38.6755 44.8491 39.0106 47.0596 40.722 48.0772C41.5137 48.5478 42.4376 48.8083 43.3478 48.8083C45.0651 48.8083 46.5817 47.9584 47.4906 46.6607C48.5809 44.806 49.5786 41.8269 50.4311 39.5892L51.3027 37.1547C51.4684 36.6916 52.154 36.809 52.1561 37.3007L52.1843 43.9031C52.224 46.6184 54.4634 48.8083 57.22 48.8083C58.6675 48.8083 59.9723 48.2045 60.8909 47.2379L60.898 47.2464L71.028 36.9866C71.5494 36.4586 72.1618 35.961 72.5845 35.348C73.0133 34.7261 73.2639 33.9746 73.2639 33.1652C73.2639 31.0222 71.5067 29.285 69.3391 29.285C68.7765 29.285 68.2417 29.402 67.758 29.6127C67.0441 29.9237 66.3846 30.3898 65.7152 30.7834L60.4218 33.8956C60.0966 34.0868 59.6973 33.8066 59.7669 33.436L63.8856 13.5188C63.9842 12.9267 64.1051 12.3366 64.1051 11.7339C64.1051 8.60698 61.5411 6.07213 58.3782 6.07213C56.189 6.07213 54.2867 7.28652 53.323 9.07109C53.1678 9.35845 53.0348 9.65807 52.8858 9.94893L45.3929 25.0016C45.2013 25.3992 44.6085 25.2981 44.5598 24.8595L42.4353 5.69608C42.3373 5.07984 42.2645 4.456 42.0635 3.86253C41.3032 1.61765 39.1587 0 36.632 0Z" fill="#1F1F1F"/>
</svg>
