<svg width="9" height="11" viewBox="0 0 9 11" fill="none" xmlns="http://www.w3.org/2000/svg">
<path d="M8.42584 5.97264C8.42584 8.14077 6.66823 9.89837 4.50011 9.89837C2.33199 9.89837 0.574381 8.14077 0.574381 5.97264C0.574381 3.80452 2.33199 2.04692 4.50011 2.04692C6.66823 2.04692 8.42584 3.80452 8.42584 5.97264Z" stroke="#1F1F1F" stroke-width="0.677083"/>
<path d="M6.53125 4.14587L4.5 6.17712" stroke="#1F1F1F" stroke-width="0.677083" stroke-linecap="round"/>
<path d="M3.146 4.82294L4.50016 6.1771" stroke="#1F1F1F" stroke-width="0.677083" stroke-linecap="round"/>
<path d="M3.86377 1.47921L3.86377 0.777749C3.86377 0.566845 4.03474 0.395874 4.24564 0.395874L4.75481 0.395874C4.96571 0.395874 5.13669 0.566845 5.13669 0.777749L5.13669 1.47921" stroke="#1F1F1F" stroke-width="0.677083" stroke-linecap="round"/>
<path d="M6.85014 2.17726L7.33788 1.68952C7.48702 1.54039 7.72881 1.54039 7.87794 1.68952L8.23797 2.04956C8.3871 2.19869 8.3871 2.44048 8.23797 2.58961L7.75023 3.07735" stroke="#1F1F1F" stroke-width="0.677083" stroke-linecap="round"/>
</svg>
