<svg width="166" height="26" viewBox="0 0 166 26" fill="none" xmlns="http://www.w3.org/2000/svg">
<g id="Subtract">
<path fill-rule="evenodd" clip-rule="evenodd" d="M119.196 0.624695C122.054 0.624695 124.624 1.1685 126.906 2.25611C129.187 3.32239 130.979 4.80453 132.28 6.70251C133.58 8.57917 134.231 10.7011 134.231 13.0682C134.231 15.4141 133.58 17.5253 132.28 19.402C130.979 21.2786 129.187 22.7608 126.906 23.8484C124.624 24.9146 122.054 25.4478 119.196 25.4478C116.445 25.4478 113.908 24.9146 111.583 23.8484C109.28 22.7608 107.446 21.2786 106.081 19.402C104.716 17.504 104.034 15.3927 104.034 13.0682C104.034 10.7224 104.705 8.6005 106.049 6.70251C107.414 4.80453 109.259 3.32239 111.583 2.25611C113.908 1.1685 116.445 0.624695 119.196 0.624695ZM119.196 20.2337C120.582 20.2337 121.894 19.9564 123.131 19.402C124.368 18.8262 125.37 18.0051 126.138 16.9388C126.906 15.8512 127.289 14.561 127.289 13.0682C127.289 11.5968 126.906 10.3172 126.138 9.22961C125.37 8.12067 124.368 7.27831 123.131 6.70251C121.894 6.12672 120.582 5.83882 119.196 5.83882C117.767 5.83882 116.424 6.12672 115.166 6.70251C113.929 7.25698 112.937 8.07802 112.191 9.16563C111.444 10.2532 111.071 11.5328 111.071 13.0043C111.071 14.4971 111.444 15.7979 112.191 16.9069C112.959 17.9945 113.961 18.8262 115.198 19.402C116.456 19.9564 117.789 20.2337 119.196 20.2337Z" fill="#1F1F1F"/>
<path fill-rule="evenodd" clip-rule="evenodd" d="M84.5706 24.776C84.3298 24.776 84.1009 24.6708 83.9441 24.488L77.6335 17.1308H70.9479V23.9505C70.9479 24.4064 70.5783 24.776 70.1224 24.776H65.3757C64.9198 24.776 64.5502 24.4064 64.5502 23.9505V1.93003C64.5502 1.47412 64.9198 1.10452 65.3757 1.10452H81.856C83.8393 1.10452 85.588 1.43507 87.1021 2.09617C88.6375 2.75726 89.8211 3.68493 90.6528 4.87917C91.419 5.93267 91.8411 7.141 91.9191 8.50418C91.9421 8.9071 91.9387 9.314 91.9133 9.71664C91.803 11.4688 91.2122 12.9379 90.141 14.1239C88.9681 15.446 87.3367 16.3311 85.2467 16.7789L90.9514 23.4123C91.4117 23.9475 91.0315 24.776 90.3255 24.776H84.5706ZM82.5732 5.97605H70.9387V12.219H82.5732C84.2971 12.219 85.6946 10.8214 85.6946 9.09751C85.6946 7.37358 84.2971 5.97605 82.5732 5.97605Z" fill="#1F1F1F"/>
<path d="M32.6391 24.808C33.0951 24.808 33.4646 24.4384 33.4646 23.9825V1.96202C33.4646 1.50611 33.0951 1.13651 32.6391 1.13651H26.3356C26.0198 1.13651 25.7317 1.31666 25.5934 1.60056L17.4064 18.4103L8.96602 1.59175C8.82597 1.31268 8.54045 1.13651 8.22821 1.13651H1.78986C1.33395 1.13651 0.964355 1.50611 0.964355 1.96202V23.9825C0.964355 24.4384 1.33395 24.808 1.78986 24.808H6.76046C7.21638 24.808 7.58597 24.4384 7.58597 23.9825V11.8207L14.0411 24.3603C14.1826 24.6352 14.4659 24.808 14.7751 24.808H20.0893C20.405 24.808 20.693 24.628 20.8314 24.3442L26.811 12.0766V23.9825C26.811 24.4384 27.1806 24.808 27.6366 24.808H32.6391Z" fill="#1F1F1F"/>
<path d="M43.4556 15.1475H58.1125C58.5684 15.1475 58.938 14.7779 58.938 14.322V11.0148C58.938 10.5589 58.5684 10.1893 58.1125 10.1893H43.4556V6.15871H60.8262C61.2842 6.15871 61.6546 5.7859 61.6517 5.32794L61.6302 1.95676C61.6273 1.50291 61.2586 1.13651 60.8047 1.13651H37.6594C37.2035 1.13651 36.8339 1.50611 36.8339 1.96202V23.9825C36.8339 24.4384 37.2035 24.808 37.6594 24.808H60.7995C61.2554 24.808 61.625 24.4384 61.625 23.9825V20.5852C61.625 20.127 61.2519 19.7565 60.7937 19.7597L43.4556 19.8818V15.1475Z" fill="#1F1F1F"/>
<path d="M94.7656 23.9825C94.7656 24.4384 95.1352 24.808 95.5911 24.808H100.562C101.018 24.808 101.387 24.4384 101.387 23.9825V1.65246C101.387 1.36751 101.156 1.13651 100.871 1.13651H95.2815C94.9966 1.13651 94.7656 1.36751 94.7656 1.65246V23.9825Z" fill="#1F1F1F"/>
<path d="M160.172 1.13651C159.716 1.13651 159.346 1.50611 159.346 1.96202V16.7789L143.753 1.37475C143.599 1.22211 143.39 1.13651 143.173 1.13651H137.716C137.26 1.13651 136.89 1.50611 136.89 1.96202V23.9825C136.89 24.4384 137.26 24.808 137.716 24.808H142.687C143.142 24.808 143.512 24.4384 143.512 23.9825V9.13364L159.105 24.5692C159.26 24.7222 159.468 24.808 159.686 24.808H165.174C165.63 24.808 166 24.4384 166 23.9825V1.96202C166 1.50611 165.63 1.13651 165.174 1.13651H160.172Z" fill="#1F1F1F"/>
</g>
</svg>
