<svg width="16" height="14" viewBox="0 0 16 14" fill="none" xmlns="http://www.w3.org/2000/svg">
<path fill-rule="evenodd" clip-rule="evenodd" d="M2.6107 0.322433C2.33404 0.322433 2.10976 0.546712 2.10976 0.823373V9.29222C2.10976 9.56888 2.33404 9.79316 2.6107 9.79316C4.28934 9.79316 5.93892 10.2312 7.39639 11.0641L7.7475 11.2647L7.74848 11.2653C7.80741 11.2995 7.87159 11.3207 7.93705 11.329C7.98255 11.3347 8.02866 11.3342 8.07406 11.3274C8.13562 11.3182 8.19594 11.2975 8.25149 11.2652L8.25282 11.2644L8.60349 11.0641C10.061 10.2312 11.7105 9.79316 13.3892 9.79316C13.6658 9.79316 13.8901 9.56888 13.8901 9.29222V0.823373C13.8901 0.546712 13.6658 0.322433 13.3892 0.322433C11.5362 0.322433 9.71527 0.806004 8.10642 1.72535L7.99994 1.78619L7.89346 1.72535C6.28461 0.806004 4.4637 0.322433 2.6107 0.322433ZM3.11164 1.40467V1.33733C4.61628 1.41557 6.0842 1.8454 7.39639 2.59522L7.49898 2.65384V9.83211V9.97968C6.13805 9.27639 4.64145 8.87511 3.11164 8.80307V1.40467ZM8.60349 2.59522C9.91568 1.8454 11.3836 1.41557 12.8882 1.33733V8.80307C11.3584 8.87511 9.86183 9.27639 8.5009 9.97968V2.65384L8.60349 2.59522Z" fill="#1F1F1F"/>
<path d="M0.440881 2.63198C0.16422 2.63198 -0.0600586 2.85626 -0.0600586 3.13292V11.2518C-0.0600586 11.5285 0.16422 11.7528 0.440881 11.7528H0.572046C3.08617 11.7528 5.55883 12.3935 7.75657 13.6145C7.83367 13.6573 7.91735 13.6776 7.99987 13.6776C8.08244 13.6777 8.16617 13.6573 8.24331 13.6145C10.4411 12.3935 12.9137 11.7528 15.4278 11.7528H15.559C15.8357 11.7528 16.0599 11.5285 16.0599 11.2518V3.13292C16.0599 2.85626 15.8357 2.63198 15.559 2.63198C15.2823 2.63198 15.0581 2.85626 15.0581 3.13292V10.7552C12.5936 10.8129 10.1763 11.4467 7.99994 12.6063C5.82362 11.4467 3.40629 10.8129 0.941821 10.7552V3.13292C0.941821 2.85626 0.717543 2.63198 0.440881 2.63198Z" fill="#1F1F1F"/>
</svg>
